<svg width="15" height="15" viewBox="0 0 15 15" fill="none" xmlns="http://www.w3.org/2000/svg">
<path fill-rule="evenodd" clip-rule="evenodd" d="M14.3081 7.46584C14.3081 6.9482 14.2616 6.45047 14.1753 5.97266H7.30005V8.79643H11.2288C11.0596 9.70893 10.5452 10.4821 9.7721 10.9997V12.8313H12.1313C13.5117 11.5605 14.3081 9.68902 14.3081 7.46584Z" fill="#342633"/>
<path fill-rule="evenodd" clip-rule="evenodd" d="M7.3001 14.6C9.2711 14.6 10.9236 13.9463 12.1314 12.8314L9.77214 10.9998C9.11846 11.4378 8.28228 11.6966 7.3001 11.6966C5.39878 11.6966 3.78946 10.4125 3.21541 8.68701H0.77655V10.5784C1.97773 12.9641 4.44646 14.6 7.3001 14.6Z" fill="#342633"/>
<path fill-rule="evenodd" clip-rule="evenodd" d="M3.21532 8.68685C3.06932 8.24885 2.98636 7.78099 2.98636 7.29985C2.98636 6.81871 3.06932 6.35085 3.21532 5.91285V4.02148H0.776455C0.282046 5.00698 0 6.12189 0 7.29985C0 8.4778 0.282046 9.59271 0.776455 10.5782L3.21532 8.68685Z" fill="#342633"/>
<path fill-rule="evenodd" clip-rule="evenodd" d="M7.3001 2.90341C8.37187 2.90341 9.33414 3.27173 10.0907 3.99509L12.1845 1.90132C10.9202 0.723364 9.26778 0 7.3001 0C4.44646 0 1.97773 1.63586 0.77655 4.02164L3.21541 5.913C3.78946 4.18755 5.39878 2.90341 7.3001 2.90341Z" fill="#342633"/>
</svg>
