<svg width="40" height="40" viewBox="0 0 40 40" fill="none" xmlns="http://www.w3.org/2000/svg">
<g clip-path="url(#clip0_337_7990)">
<path d="M40 18.7499C40 18.5841 39.9341 18.4251 39.8169 18.3079C39.6997 18.1907 39.5407 18.1249 39.375 18.1249H28.665L28.2703 16.2499H39.375C39.5407 16.2499 39.6997 16.184 39.8169 16.0668C39.9341 15.9496 40 15.7906 40 15.6249C40 15.4591 39.9341 15.3001 39.8169 15.1829C39.6997 15.0657 39.5407 14.9999 39.375 14.9999H26.5625V16.2499H26.9928L31.8884 39.5036C31.9046 39.5846 31.9367 39.6616 31.9829 39.7301C32.029 39.7986 32.0883 39.8573 32.1572 39.9028C32.2262 39.9483 32.3035 39.9796 32.3846 39.995C32.4658 40.0105 32.5492 40.0096 32.63 39.9926C32.7109 39.9756 32.7875 39.9427 32.8556 39.8959C32.9236 39.8491 32.9817 39.7892 33.0265 39.7198C33.0713 39.6504 33.1019 39.5728 33.1164 39.4915C33.131 39.4102 33.1294 39.3268 33.1115 39.2461L32.875 38.1249H39.375C39.5407 38.1249 39.6997 38.059 39.8169 37.9418C39.9341 37.8246 40 37.6656 40 37.4999C40 37.3341 39.9341 37.1751 39.8169 37.0579C39.6997 36.9407 39.5407 36.8749 39.375 36.8749H32.6125L32.2178 34.9999H39.375C39.5407 34.9999 39.6997 34.934 39.8169 34.8168C39.9341 34.6996 40 34.5406 40 34.3749C40 34.2091 39.9341 34.0501 39.8169 33.9329C39.6997 33.8157 39.5407 33.7499 39.375 33.7499H31.9544L31.5597 31.8749H39.375C39.5407 31.8749 39.6997 31.809 39.8169 31.6918C39.9341 31.5746 40 31.4156 40 31.2499C40 31.0841 39.9341 30.9251 39.8169 30.8079C39.6997 30.6907 39.5407 30.6249 39.375 30.6249H31.2965L30.9019 28.7499H39.375C39.5407 28.7499 39.6997 28.684 39.8169 28.5668C39.9341 28.4496 40 28.2906 40 28.1249C40 27.9591 39.9341 27.8001 39.8169 27.6829C39.6997 27.5657 39.5407 27.4999 39.375 27.4999H30.6387L30.244 25.6249H39.375C39.5407 25.6249 39.6997 25.559 39.8169 25.4418C39.9341 25.3246 40 25.1656 40 24.9999C40 24.8341 39.9341 24.6751 39.8169 24.5579C39.6997 24.4407 39.5407 24.3749 39.375 24.3749H29.9809L29.5862 22.4999H39.375C39.5407 22.4999 39.6997 22.434 39.8169 22.3168C39.9341 22.1996 40 22.0406 40 21.8749C40 21.7091 39.9341 21.5501 39.8169 21.4329C39.6997 21.3157 39.5407 21.2499 39.375 21.2499H29.3228L28.9281 19.3749H39.375C39.5407 19.3749 39.6997 19.309 39.8169 19.1918C39.9341 19.0746 40 18.9156 40 18.7499ZM6.56248 10.8805C7.00519 11.0984 7.48717 11.2252 7.97982 11.2533C8.47247 11.2813 8.96573 11.2101 9.43032 11.0438C9.89491 10.8776 10.3214 10.6197 10.6843 10.2854C11.0473 9.95111 11.3394 9.54731 11.5433 9.09795C11.7472 8.6486 11.8587 8.16286 11.8712 7.66957C11.8837 7.17629 11.797 6.68551 11.6162 6.2264C11.4354 5.76728 11.1641 5.34917 10.8186 4.99691C10.473 4.64466 10.0602 4.36542 9.60467 4.1758C9.6753 3.65274 9.63322 3.12063 9.48127 2.61518C9.32931 2.10973 9.07099 1.64263 8.72365 1.24523C8.3763 0.847833 7.94797 0.529333 7.4674 0.311107C6.98682 0.092882 6.46513 -0.0200195 5.93733 -0.0200195C5.40953 -0.0200195 4.88783 0.092882 4.40726 0.311107C3.92669 0.529333 3.49835 0.847833 3.15101 1.24523C2.80366 1.64263 2.54535 2.10973 2.39339 2.61518C2.24143 3.12063 2.19936 3.65274 2.26998 4.1758C1.48203 4.502 0.831967 5.09195 0.431085 5.84466C0.0302022 6.59737 -0.0965677 7.46602 0.0724774 8.3019C0.241523 9.13779 0.695869 9.88892 1.35773 10.4267C2.0196 10.9645 2.84782 11.2555 3.70061 11.2499C4.25895 11.2505 4.81013 11.1242 5.31248 10.8805V14.9999H0.624984C0.459224 14.9999 0.300252 15.0657 0.183042 15.1829C0.065832 15.3001 -1.6053e-05 15.4591 -1.6053e-05 15.6249C-1.6053e-05 15.7906 0.065832 15.9496 0.183042 16.0668C0.300252 16.184 0.459224 16.2499 0.624984 16.2499H11.7297L11.335 18.1249H0.624984C0.459224 18.1249 0.300252 18.1907 0.183042 18.3079C0.065832 18.4251 -1.6053e-05 18.5841 -1.6053e-05 18.7499C-1.6053e-05 18.9156 0.065832 19.0746 0.183042 19.1918C0.300252 19.309 0.459224 19.3749 0.624984 19.3749H11.0719L10.6772 21.2499H0.624984C0.459224 21.2499 0.300252 21.3157 0.183042 21.4329C0.065832 21.5501 -1.6053e-05 21.7091 -1.6053e-05 21.8749C-1.6053e-05 22.0406 0.065832 22.1996 0.183042 22.3168C0.300252 22.434 0.459224 22.4999 0.624984 22.4999H10.414L10.0194 24.3749H0.624984C0.459224 24.3749 0.300252 24.4407 0.183042 24.5579C0.065832 24.6751 -1.6053e-05 24.8341 -1.6053e-05 24.9999C-1.6053e-05 25.1656 0.065832 25.3246 0.183042 25.4418C0.300252 25.559 0.459224 25.6249 0.624984 25.6249H9.75592L9.36123 27.4999H0.624984C0.459224 27.4999 0.300252 27.5657 0.183042 27.6829C0.065832 27.8001 -1.6053e-05 27.9591 -1.6053e-05 28.1249C-1.6053e-05 28.2906 0.065832 28.4496 0.183042 28.5668C0.300252 28.684 0.459224 28.7499 0.624984 28.7499H9.09811L8.70342 30.6249H0.624984C0.459224 30.6249 0.300252 30.6907 0.183042 30.8079C0.065832 30.9251 -1.6053e-05 31.0841 -1.6053e-05 31.2499C-1.6053e-05 31.4156 0.065832 31.5746 0.183042 31.6918C0.300252 31.809 0.459224 31.8749 0.624984 31.8749H8.4403L8.04561 33.7499H0.624984C0.459224 33.7499 0.300252 33.8157 0.183042 33.9329C0.065832 34.0501 -1.6053e-05 34.2091 -1.6053e-05 34.3749C-1.6053e-05 34.5406 0.065832 34.6996 0.183042 34.8168C0.300252 34.934 0.459224 34.9999 0.624984 34.9999H7.78123L7.38655 36.8749H0.624984C0.459224 36.8749 0.300252 36.9407 0.183042 37.0579C0.065832 37.1751 -1.6053e-05 37.3341 -1.6053e-05 37.4999C-1.6053e-05 37.6656 0.065832 37.8246 0.183042 37.9418C0.300252 38.059 0.459224 38.1249 0.624984 38.1249H7.12498L6.88905 39.2461C6.87121 39.3268 6.86955 39.4102 6.88414 39.4915C6.89874 39.5728 6.92931 39.6504 6.97409 39.7198C7.01886 39.7892 7.07696 39.8491 7.14501 39.8959C7.21306 39.9427 7.28972 39.9756 7.37055 39.9926C7.45139 40.0096 7.53479 40.0105 7.61595 39.995C7.69711 39.9796 7.7744 39.9483 7.84336 39.9028C7.91233 39.8573 7.97159 39.7986 8.01773 39.7301C8.06387 39.6616 8.09597 39.5846 8.11217 39.5036L13.0072 16.2499H15.5556L13.1284 39.3095C13.1198 39.3912 13.1273 39.4738 13.1506 39.5526C13.1738 39.6313 13.2124 39.7047 13.2641 39.7686C13.3157 39.8324 13.3795 39.8855 13.4516 39.9247C13.5238 39.9639 13.603 39.9885 13.6847 39.997C13.7069 39.9992 13.729 40.0005 13.7509 40.0005C13.9053 40.0003 14.0541 39.9431 14.1687 39.8397C14.2834 39.7364 14.3557 39.5943 14.3719 39.4408L16.8125 16.2499H19.375V39.3749C19.375 39.5406 19.4408 39.6996 19.558 39.8168C19.6753 39.934 19.8342 39.9999 20 39.9999C20.1657 39.9999 20.3247 39.934 20.4419 39.8168C20.5591 39.6996 20.625 39.5406 20.625 39.3749V16.2499H22.8125V14.9999H6.56248V10.8805ZM5.93748 9.03673C5.85262 9.03675 5.76866 9.05405 5.6907 9.08758C5.61274 9.1211 5.54243 9.17015 5.48405 9.23174C5.14819 9.58723 4.71371 9.83417 4.23642 9.94081C3.75914 10.0475 3.26086 10.0089 2.80564 9.83019C2.35042 9.65145 1.95906 9.34066 1.68184 8.93776C1.40463 8.53486 1.25423 8.05827 1.24998 7.56923C1.24979 7.01859 1.43725 6.48431 1.78145 6.0545C2.12565 5.62469 2.60604 5.32501 3.14342 5.20486C3.22761 5.18548 3.30688 5.14885 3.3762 5.09729C3.44552 5.04573 3.50341 4.98036 3.54619 4.9053C3.58898 4.83025 3.61573 4.74713 3.62478 4.66121C3.63382 4.57529 3.62495 4.48843 3.59873 4.40611C3.52452 4.17085 3.48679 3.92561 3.48686 3.67892C3.49414 3.03373 3.75556 2.41743 4.21438 1.96377C4.6732 1.5101 5.2924 1.25566 5.93764 1.25566C6.58288 1.25566 7.20208 1.5101 7.6609 1.96377C8.11972 2.41743 8.38114 3.03373 8.38842 3.67892C8.38849 3.92561 8.35076 4.17085 8.27655 4.40611C8.25058 4.48833 8.24191 4.57504 8.25107 4.66078C8.26024 4.74652 8.28705 4.82943 8.32981 4.90431C8.37258 4.97918 8.43037 5.0444 8.49956 5.09585C8.56876 5.14731 8.64784 5.18389 8.73186 5.2033C9.10034 5.29168 9.44306 5.46498 9.73267 5.70935C10.0223 5.95372 10.2507 6.26241 10.3999 6.61077C10.549 6.95913 10.6146 7.33752 10.5915 7.71575C10.5684 8.09398 10.4572 8.46157 10.2668 8.78918C10.0764 9.1168 9.812 9.39537 9.4948 9.60267C9.1776 9.80997 8.81633 9.94025 8.43983 9.98312C8.06333 10.026 7.68202 9.98027 7.32633 9.84959C6.97065 9.71891 6.65043 9.50691 6.39123 9.23048C6.33268 9.16915 6.26226 9.12036 6.18425 9.08711C6.10624 9.05385 6.02228 9.03682 5.93748 9.03705V9.03673ZM25.3206 24.5755C24.9146 24.7239 24.4693 24.7251 24.0625 24.5789L25.6269 39.4402C25.643 39.594 25.7157 39.7365 25.8308 39.8398C25.9459 39.9432 26.0953 40.0002 26.25 39.9999C26.2715 39.9999 26.294 39.9999 26.3159 39.9964C26.3976 39.9878 26.4768 39.9633 26.549 39.9241C26.6211 39.8848 26.6849 39.8318 26.7365 39.768C26.7882 39.7041 26.8268 39.6307 26.85 39.5519C26.8733 39.4732 26.8808 39.3906 26.8722 39.3089L25.3206 24.5755Z" fill="#898088"/>
<path d="M24.6875 23.4375C24.8533 23.4375 25.0122 23.3717 25.1294 23.2544C25.2467 23.1372 25.3125 22.9783 25.3125 22.8125V11.25H32.8125C32.9783 11.25 33.1372 11.1842 33.2544 11.0669C33.3717 10.9497 33.4375 10.7908 33.4375 10.625V0.625C33.4375 0.45924 33.3717 0.300269 33.2544 0.183058C33.1372 0.065848 32.9783 0 32.8125 0L16.5625 0C16.3967 0 16.2378 0.065848 16.1206 0.183058C16.0033 0.300269 15.9375 0.45924 15.9375 0.625V10.625C15.9375 10.7908 16.0033 10.9497 16.1206 11.0669C16.2378 11.1842 16.3967 11.25 16.5625 11.25H24.0625V22.8125C24.0625 22.9783 24.1283 23.1372 24.2456 23.2544C24.3628 23.3717 24.5217 23.4375 24.6875 23.4375ZM17.1875 10V1.25H32.1875V10H17.1875Z" fill="#898088"/>
<path d="M19.0625 3.4375C19.4077 3.4375 19.6875 3.15768 19.6875 2.8125C19.6875 2.46732 19.4077 2.1875 19.0625 2.1875C18.7173 2.1875 18.4375 2.46732 18.4375 2.8125C18.4375 3.15768 18.7173 3.4375 19.0625 3.4375Z" fill="#898088"/>
<path d="M30.3125 3.4375C30.6577 3.4375 30.9375 3.15768 30.9375 2.8125C30.9375 2.46732 30.6577 2.1875 30.3125 2.1875C29.9673 2.1875 29.6875 2.46732 29.6875 2.8125C29.6875 3.15768 29.9673 3.4375 30.3125 3.4375Z" fill="#898088"/>
<path d="M30.3125 9.0625C30.6577 9.0625 30.9375 8.78268 30.9375 8.4375C30.9375 8.09232 30.6577 7.8125 30.3125 7.8125C29.9673 7.8125 29.6875 8.09232 29.6875 8.4375C29.6875 8.78268 29.9673 9.0625 30.3125 9.0625Z" fill="#898088"/>
<path d="M19.0625 9.0625C19.4077 9.0625 19.6875 8.78268 19.6875 8.4375C19.6875 8.09232 19.4077 7.8125 19.0625 7.8125C18.7173 7.8125 18.4375 8.09232 18.4375 8.4375C18.4375 8.78268 18.7173 9.0625 19.0625 9.0625Z" fill="#898088"/>
<path d="M26.5625 6.25H22.8125C22.6467 6.25 22.4878 6.31585 22.3706 6.43306C22.2533 6.55027 22.1875 6.70924 22.1875 6.875C22.1875 7.04076 22.2533 7.19973 22.3706 7.31694C22.4878 7.43415 22.6467 7.5 22.8125 7.5H26.5625C26.7283 7.5 26.8872 7.43415 27.0044 7.31694C27.1217 7.19973 27.1875 7.04076 27.1875 6.875C27.1875 6.70924 27.1217 6.55027 27.0044 6.43306C26.8872 6.31585 26.7283 6.25 26.5625 6.25ZM27.5 3.75H21.875C21.7092 3.75 21.5503 3.81585 21.4331 3.93306C21.3158 4.05027 21.25 4.20924 21.25 4.375C21.25 4.54076 21.3158 4.69973 21.4331 4.81694C21.5503 4.93415 21.7092 5 21.875 5H27.5C27.6658 5 27.8247 4.93415 27.9419 4.81694C28.0592 4.69973 28.125 4.54076 28.125 4.375C28.125 4.20924 28.0592 4.05027 27.9419 3.93306C27.8247 3.81585 27.6658 3.75 27.5 3.75Z" fill="#898088"/>
</g>
<defs>
<clipPath id="clip0_337_7990">
<rect width="40" height="40" fill="white"/>
</clipPath>
</defs>
</svg>
