<svg width="24" height="25" viewBox="0 0 24 25" fill="none" xmlns="http://www.w3.org/2000/svg">
<path d="M12.398 20.304L12.8585 21.1917L12.8585 21.1917L12.398 20.304ZM11.602 20.304L11.1415 21.1917L11.1415 21.1917L11.602 20.304ZM18 11.5C18 13.6458 16.9079 15.4159 15.545 16.7906C14.183 18.1644 12.6342 19.055 11.9376 19.4163L12.8585 21.1917C13.6448 20.7838 15.397 19.7805 16.9653 18.1987C18.5326 16.6178 20 14.3706 20 11.5H18ZM12 5.5C15.3137 5.5 18 8.18629 18 11.5H20C20 7.08172 16.4183 3.5 12 3.5V5.5ZM6 11.5C6 8.18629 8.68629 5.5 12 5.5V3.5C7.58172 3.5 4 7.08172 4 11.5H6ZM12.0624 19.4163C11.3658 19.055 9.81702 18.1644 8.45503 16.7906C7.09211 15.4159 6 13.6458 6 11.5H4C4 14.3706 5.46741 16.6178 7.03474 18.1987C8.60299 19.7805 10.3552 20.7838 11.1415 21.1917L12.0624 19.4163ZM11.9376 19.4163C11.9514 19.4091 11.9733 19.4023 12 19.4023C12.0267 19.4023 12.0486 19.4091 12.0624 19.4163L11.1415 21.1917C11.6831 21.4726 12.3169 21.4726 12.8585 21.1917L11.9376 19.4163ZM14 11.5C14 12.6046 13.1046 13.5 12 13.5V15.5C14.2091 15.5 16 13.7091 16 11.5H14ZM12 9.5C13.1046 9.5 14 10.3954 14 11.5H16C16 9.29086 14.2091 7.5 12 7.5V9.5ZM10 11.5C10 10.3954 10.8954 9.5 12 9.5V7.5C9.79086 7.5 8 9.29086 8 11.5H10ZM12 13.5C10.8954 13.5 10 12.6046 10 11.5H8C8 13.7091 9.79086 15.5 12 15.5V13.5Z" fill="#898088"/>
</svg>
