<svg width="35" height="36" viewBox="0 0 35 36" fill="none" xmlns="http://www.w3.org/2000/svg">
<circle cx="17.5" cy="18" r="17.5" fill="#433142"/>
<g clip-path="url(#clip0_1187_14751)">
<path d="M17.5001 21.4923C18.1985 21.4923 18.7699 20.9208 18.7699 20.2224C18.7699 19.524 18.1985 18.9526 17.5001 18.9526C16.8017 18.9526 16.2302 19.524 16.2302 20.2224C16.2302 20.9208 16.8017 21.4923 17.5001 21.4923Z" fill="#898088"/>
<path d="M21.3096 15.7778H20.6746V14.508C20.6746 12.7556 19.2524 11.3334 17.5 11.3334C15.7477 11.3334 14.3254 12.7556 14.3254 14.508V15.7778H13.6905C12.9921 15.7778 12.4207 16.3493 12.4207 17.0477V23.3969C12.4207 24.0953 12.9921 24.6667 13.6905 24.6667H21.3095C22.0079 24.6667 22.5794 24.0953 22.5794 23.3969V17.0477C22.5794 16.3493 22.008 15.7778 21.3096 15.7778ZM15.5318 14.508C15.5318 13.4223 16.4143 12.5397 17.5 12.5397C18.5857 12.5397 19.4683 13.4223 19.4683 14.508V15.7778H15.5318V14.508ZM21.3096 23.3969H13.6905V17.0476H21.3095V23.3969H21.3096Z" fill="#898088"/>
</g>
<defs>
<clipPath id="clip0_1187_14751">
<rect width="13.3333" height="13.3333" fill="white" transform="translate(10.8334 11.3334)"/>
</clipPath>
</defs>
</svg>
