<svg width="40" height="40" viewBox="0 0 40 40" fill="none" xmlns="http://www.w3.org/2000/svg">
<circle cx="20" cy="20" r="20" fill="#F3F3F3"/>
<g clip-path="url(#clip0_987_12935)">
<path d="M20.0001 22.8572C20.8382 22.8572 21.5239 22.1715 21.5239 21.3334C21.5239 20.4953 20.8382 19.8096 20.0001 19.8096C19.162 19.8096 18.4763 20.4953 18.4763 21.3334C18.4763 22.1715 19.162 22.8572 20.0001 22.8572Z" fill="#262C34"/>
<path d="M24.5715 15.9998H23.8096V14.476C23.8096 12.3732 22.1029 10.6665 20 10.6665C17.8972 10.6665 16.1905 12.3732 16.1905 14.476V15.9998H15.4286C14.5905 15.9998 13.9048 16.6856 13.9048 17.5237V25.1427C13.9048 25.9808 14.5905 26.6665 15.4286 26.6665H24.5714C25.4095 26.6665 26.0953 25.9808 26.0953 25.1427V17.5237C26.0953 16.6856 25.4096 15.9998 24.5715 15.9998ZM17.6381 14.476C17.6381 13.1732 18.6972 12.1141 20 12.1141C21.3029 12.1141 22.3619 13.1732 22.3619 14.476V15.9998H17.6381V14.476ZM24.5715 25.1427H15.4286V17.5236H24.5714V25.1427H24.5715Z" fill="#262C34"/>
</g>
<defs>
<clipPath id="clip0_987_12935">
<rect width="16" height="16" fill="white" transform="translate(12 10.6665)"/>
</clipPath>
</defs>
</svg>
