<svg width="15" height="15" viewBox="0 0 15 15" fill="none" xmlns="http://www.w3.org/2000/svg">
<path d="M7.19958 11.5498C4.80416 11.5498 3.70973 10.3295 3.70973 9.43449C3.7094 9.22097 3.79703 9.01675 3.952 8.86987C4.10697 8.72299 4.31558 8.64642 4.52877 8.65817C5.55436 8.65817 5.2861 10.1966 7.19958 10.1966C8.17769 10.1966 8.75221 9.60779 8.75221 9.05464C8.75221 8.72227 8.56229 8.34242 7.91654 8.19049L5.7799 7.65158C4.06346 7.21475 3.76433 6.26038 3.76433 5.37486C3.76433 3.53735 5.44516 2.87261 7.04527 2.87261C8.51955 2.87261 10.2716 3.68691 10.2716 4.78847C10.2716 5.26328 9.87514 5.5173 9.41457 5.5173C8.53855 5.5173 8.68574 4.28755 6.92419 4.28755C6.04817 4.28755 5.5876 4.69826 5.5876 5.27278C5.5876 5.8473 6.26895 6.04197 6.86721 6.17254L8.44358 6.52865C10.1719 6.91799 10.6325 7.93171 10.6325 8.9027C10.6325 10.396 9.4763 11.5498 7.19721 11.5498H7.19958ZM13.8137 8.3899C13.8821 7.99794 13.9163 7.60077 13.9158 7.20288C13.9242 5.2042 13.0459 3.30466 11.5179 2.01631C9.98983 0.727953 7.96921 0.183395 6.00069 0.529423C5.39563 0.181062 4.7094 -0.00155044 4.01123 9.91621e-06C2.57816 0.00876424 1.25721 0.776816 0.540678 2.01793C-0.175854 3.25904 -0.180489 4.78704 0.5285 6.03247C0.132889 8.20623 0.825881 10.436 2.38395 12.0026C3.94201 13.5692 6.16799 14.2743 8.34387 13.8906C8.94819 14.2386 9.63357 14.4212 10.331 14.42C11.7633 14.4108 13.0834 13.643 13.7998 12.4027C14.5162 11.1623 14.5215 9.63519 13.8137 8.3899Z" fill="#342633"/>
</svg>
