<svg width="40" height="40" viewBox="0 0 40 40" fill="none" xmlns="http://www.w3.org/2000/svg">
<path d="M18.7812 37.5H7.5C6.6712 37.5 5.87634 37.1708 5.29029 36.5847C4.70424 35.9987 4.375 35.2038 4.375 34.375V8.125C4.375 7.2962 4.70424 6.50134 5.29029 5.91529C5.87634 5.32924 6.6712 5 7.5 5H10.625V6.25H7.5C7.00272 6.25 6.52581 6.44754 6.17417 6.79917C5.82254 7.15081 5.625 7.62772 5.625 8.125V34.375C5.625 34.8723 5.82254 35.3492 6.17417 35.7008C6.52581 36.0525 7.00272 36.25 7.5 36.25H18.7812V37.5ZM30.625 8.125C30.625 7.2962 30.2958 6.50134 29.7097 5.91529C29.1237 5.32924 28.3288 5 27.5 5H24.375V6.25H27.5C27.9973 6.25 28.4742 6.44754 28.8258 6.79917C29.1775 7.15081 29.375 7.62772 29.375 8.125V17.5H30.625V8.125ZM16.8375 33.75H8.125V8.75H10.625V7.5H7.5C7.33424 7.5 7.17527 7.56585 7.05806 7.68306C6.94085 7.80027 6.875 7.95924 6.875 8.125V34.375C6.875 34.5408 6.94085 34.6997 7.05806 34.8169C7.17527 34.9342 7.33424 35 7.5 35H16.8375V33.75ZM28.125 8.125C28.125 7.95924 28.0592 7.80027 27.9419 7.68306C27.8247 7.56585 27.6658 7.5 27.5 7.5H24.375V8.75H26.875V17.5H28.125V8.125ZM23.125 10.625V5.625C23.125 5.45924 23.0592 5.30027 22.9419 5.18306C22.8247 5.06585 22.6658 5 22.5 5H20C20 4.33696 19.7366 3.70107 19.2678 3.23223C18.7989 2.76339 18.163 2.5 17.5 2.5C16.837 2.5 16.2011 2.76339 15.7322 3.23223C15.2634 3.70107 15 4.33696 15 5H12.5C12.3342 5 12.1753 5.06585 12.0581 5.18306C11.9408 5.30027 11.875 5.45924 11.875 5.625V10.625C11.875 10.7908 11.9408 10.9497 12.0581 11.0669C12.1753 11.1842 12.3342 11.25 12.5 11.25H22.5C22.6658 11.25 22.8247 11.1842 22.9419 11.0669C23.0592 10.9497 23.125 10.7908 23.125 10.625ZM13.125 6.25H15.625C15.7908 6.25 15.9497 6.18415 16.0669 6.06694C16.1842 5.94973 16.25 5.79076 16.25 5.625V5C16.25 4.66848 16.3817 4.35054 16.6161 4.11612C16.8505 3.8817 17.1685 3.75 17.5 3.75C17.8315 3.75 18.1495 3.8817 18.3839 4.11612C18.6183 4.35054 18.75 4.66848 18.75 5V5.625C18.75 5.79076 18.8158 5.94973 18.9331 6.06694C19.0503 6.18415 19.2092 6.25 19.375 6.25H21.875V10H13.125V6.25ZM19.375 7.5H15.625V8.75H19.375V7.5ZM24.375 14.375H18.125V15.625H24.375V14.375ZM24.375 18.125H18.125V19.375H24.375V18.125ZM12.9437 17.9437L15.4437 15.4437L14.5563 14.5563L12.4188 16.6937L10.9687 15.7312L10.2813 16.7688L12.1563 18.0188C12.2565 18.09 12.377 18.1273 12.5 18.125C12.5823 18.1255 12.6638 18.1097 12.7399 18.0786C12.8161 18.0475 12.8853 18.0017 12.9437 17.9437ZM12.9437 22.9437L15.4437 20.4437L14.5563 19.5563L12.4188 21.6937L10.9687 20.7312L10.2813 21.7688L12.1563 23.0188C12.2565 23.09 12.377 23.1273 12.5 23.125C12.5823 23.1255 12.6638 23.1097 12.7399 23.0786C12.8161 23.0475 12.8853 23.0017 12.9437 22.9437ZM12.9437 27.9437L15.4437 25.4437L14.5563 24.5563L12.4188 26.6937L10.9687 25.7312L10.2813 26.7688L12.1563 28.0188C12.2565 28.09 12.377 28.1273 12.5 28.125C12.5823 28.1255 12.6638 28.1097 12.7399 28.0786C12.8161 28.0475 12.8853 28.0017 12.9437 27.9437ZM33.125 29.375C33.125 29.2092 33.0592 29.0503 32.9419 28.9331C32.8247 28.8158 32.6658 28.75 32.5 28.75H25.625V21.875C25.625 21.7092 25.5592 21.5503 25.4419 21.4331C25.3247 21.3158 25.1658 21.25 25 21.25C23.393 21.25 21.8221 21.7265 20.486 22.6193C19.1498 23.5121 18.1084 24.781 17.4935 26.2657C16.8785 27.7503 16.7176 29.384 17.0311 30.9601C17.3446 32.5362 18.1185 33.9839 19.2548 35.1202C20.3911 36.2565 21.8388 37.0304 23.4149 37.3439C24.991 37.6574 26.6247 37.4965 28.1093 36.8815C29.594 36.2666 30.8629 35.2252 31.7557 33.889C32.6485 32.5529 33.125 30.982 33.125 29.375ZM24.375 29.375C24.375 29.5408 24.4408 29.6997 24.5581 29.8169C24.6753 29.9342 24.8342 30 25 30H31.875C31.7505 31.2978 31.2595 32.5335 30.4594 33.5629C29.6592 34.5923 28.5828 35.3729 27.3558 35.8137C26.1288 36.2546 24.8017 36.3374 23.5294 36.0525C22.2571 35.7677 21.092 35.1269 20.17 34.205C19.2481 33.283 18.6074 32.1179 18.3225 30.8456C18.0376 29.5733 18.1204 28.2462 18.5613 27.0192C19.0021 25.7922 19.7827 24.7158 20.8121 23.9156C21.8415 23.1155 23.0772 22.6245 24.375 22.5V29.375ZM35.625 26.875C35.625 24.7201 34.769 22.6535 33.2452 21.1298C31.7215 19.606 29.6549 18.75 27.5 18.75C27.3342 18.75 27.1753 18.8158 27.0581 18.9331C26.9408 19.0503 26.875 19.2092 26.875 19.375V26.875C26.875 27.0408 26.9408 27.1997 27.0581 27.3169C27.1753 27.4342 27.3342 27.5 27.5 27.5H35C35.1658 27.5 35.3247 27.4342 35.4419 27.3169C35.5592 27.1997 35.625 27.0408 35.625 26.875ZM28.125 20C29.7353 20.1408 31.2445 20.8445 32.3875 21.9875C33.5305 23.1305 34.2342 24.6397 34.375 26.25H28.125V20Z" fill="#898088"/>
</svg>
