<svg width="15" height="13" viewBox="0 0 15 13" fill="none" xmlns="http://www.w3.org/2000/svg">
<path d="M4.80396 12.3301C10.126 12.3301 13.036 7.92012 13.036 4.09812C13.036 3.97212 13.036 3.84612 13.03 3.72612C13.594 3.31812 14.086 2.80812 14.476 2.22612C13.96 2.45412 13.402 2.61012 12.814 2.68212C13.414 2.32212 13.87 1.75812 14.086 1.08012C13.528 1.41012 12.91 1.65012 12.25 1.78212C11.722 1.21812 10.972 0.870117 10.138 0.870117C8.54196 0.870117 7.24596 2.16612 7.24596 3.76212C7.24596 3.99012 7.26996 4.21212 7.32396 4.42212C4.91796 4.30212 2.78796 3.15012 1.35996 1.39812C1.11396 1.82412 0.969958 2.32212 0.969958 2.85012C0.969958 3.85212 1.47996 4.74012 2.25996 5.25612C1.78596 5.24412 1.34196 5.11212 0.951958 4.89612C0.951958 4.90812 0.951958 4.92012 0.951958 4.93212C0.951958 6.33612 1.94796 7.50012 3.27396 7.77012C3.03396 7.83612 2.77596 7.87212 2.51196 7.87212C2.32596 7.87212 2.14596 7.85412 1.96596 7.81812C2.33196 8.97012 3.39996 9.80412 4.66596 9.82812C3.67596 10.6021 2.42796 11.0641 1.07196 11.0641C0.837958 11.0641 0.609958 11.0521 0.381958 11.0221C1.64796 11.8501 3.17196 12.3301 4.80396 12.3301Z" fill="#342633"/>
</svg>
