<svg width="40" height="40" viewBox="0 0 40 40" fill="none" xmlns="http://www.w3.org/2000/svg">
<g clip-path="url(#clip0_337_7978)">
<path d="M13.75 5C13.9158 4.99999 14.0747 4.93414 14.1919 4.81693C14.3091 4.69972 14.375 4.54076 14.375 4.375V3.125C14.375 2.95924 14.3092 2.80027 14.1919 2.68306C14.0747 2.56585 13.9158 2.5 13.75 2.5C13.5842 2.5 13.4253 2.56585 13.3081 2.68306C13.1908 2.80027 13.125 2.95924 13.125 3.125V4.375C13.125 4.54076 13.1909 4.69972 13.3081 4.81693C13.4253 4.93414 13.5842 4.99999 13.75 5ZM16.25 5C16.4158 4.99999 16.5747 4.93414 16.6919 4.81693C16.8091 4.69972 16.875 4.54076 16.875 4.375V3.125C16.875 2.95924 16.8092 2.80027 16.6919 2.68306C16.5747 2.56585 16.4158 2.5 16.25 2.5C16.0842 2.5 15.9253 2.56585 15.8081 2.68306C15.6908 2.80027 15.625 2.95924 15.625 3.125V4.375C15.625 4.54076 15.6909 4.69972 15.8081 4.81693C15.9253 4.93414 16.0842 4.99999 16.25 5ZM18.75 5C18.9158 4.99999 19.0747 4.93414 19.1919 4.81693C19.3091 4.69972 19.375 4.54076 19.375 4.375V3.125C19.375 2.95924 19.3092 2.80027 19.1919 2.68306C19.0747 2.56585 18.9158 2.5 18.75 2.5C18.5842 2.5 18.4253 2.56585 18.3081 2.68306C18.1908 2.80027 18.125 2.95924 18.125 3.125V4.375C18.125 4.54076 18.1909 4.69972 18.3081 4.81693C18.4253 4.93414 18.5842 4.99999 18.75 5ZM21.25 5C21.4158 4.99999 21.5747 4.93414 21.6919 4.81693C21.8091 4.69972 21.875 4.54076 21.875 4.375V3.125C21.875 2.95924 21.8092 2.80027 21.6919 2.68306C21.5747 2.56585 21.4158 2.5 21.25 2.5C21.0842 2.5 20.9253 2.56585 20.8081 2.68306C20.6908 2.80027 20.625 2.95924 20.625 3.125V4.375C20.625 4.54076 20.6909 4.69972 20.8081 4.81693C20.9253 4.93414 21.0842 4.99999 21.25 5ZM23.75 5C23.9158 4.99999 24.0747 4.93414 24.1919 4.81693C24.3091 4.69972 24.375 4.54076 24.375 4.375V3.125C24.375 2.95924 24.3092 2.80027 24.1919 2.68306C24.0747 2.56585 23.9158 2.5 23.75 2.5C23.5842 2.5 23.4253 2.56585 23.3081 2.68306C23.1908 2.80027 23.125 2.95924 23.125 3.125V4.375C23.125 4.54076 23.1909 4.69972 23.3081 4.81693C23.4253 4.93414 23.5842 4.99999 23.75 5ZM26.25 5C26.4158 4.99999 26.5747 4.93414 26.6919 4.81693C26.8091 4.69972 26.875 4.54076 26.875 4.375V3.125C26.875 2.95924 26.8092 2.80027 26.6919 2.68306C26.5747 2.56585 26.4158 2.5 26.25 2.5C26.0842 2.5 25.9253 2.56585 25.8081 2.68306C25.6908 2.80027 25.625 2.95924 25.625 3.125V4.375C25.625 4.54076 25.6909 4.69972 25.8081 4.81693C25.9253 4.93414 26.0842 4.99999 26.25 5ZM4.0625 16.875C4.0625 16.7092 3.99665 16.5503 3.87944 16.4331C3.76223 16.3158 3.60326 16.25 3.4375 16.25C3.27174 16.25 3.11277 16.3158 2.99556 16.4331C2.87835 16.5503 2.8125 16.7092 2.8125 16.875V18.125C2.8125 18.2908 2.87835 18.4497 2.99556 18.5669C3.11277 18.6842 3.27174 18.75 3.4375 18.75C3.60326 18.75 3.76223 18.6842 3.87944 18.5669C3.99665 18.4497 4.0625 18.2908 4.0625 18.125V16.875ZM5.9375 18.75C6.10326 18.75 6.26222 18.6841 6.37943 18.5669C6.49664 18.4497 6.56249 18.2908 6.5625 18.125V16.875C6.5625 16.7092 6.49665 16.5503 6.37944 16.4331C6.26223 16.3158 6.10326 16.25 5.9375 16.25C5.77174 16.25 5.61277 16.3158 5.49556 16.4331C5.37835 16.5503 5.3125 16.7092 5.3125 16.875V18.125C5.31251 18.2908 5.37836 18.4497 5.49557 18.5669C5.61278 18.6841 5.77174 18.75 5.9375 18.75ZM8.4375 18.75C8.60326 18.75 8.76222 18.6841 8.87943 18.5669C8.99664 18.4497 9.06249 18.2908 9.0625 18.125V16.875C9.0625 16.7092 8.99665 16.5503 8.87944 16.4331C8.76223 16.3158 8.60326 16.25 8.4375 16.25C8.27174 16.25 8.11277 16.3158 7.99556 16.4331C7.87835 16.5503 7.8125 16.7092 7.8125 16.875V18.125C7.81251 18.2908 7.87836 18.4497 7.99557 18.5669C8.11278 18.6841 8.27174 18.75 8.4375 18.75ZM4.0625 20.625C4.0625 20.4592 3.99665 20.3003 3.87944 20.1831C3.76223 20.0658 3.60326 20 3.4375 20C3.27174 20 3.11277 20.0658 2.99556 20.1831C2.87835 20.3003 2.8125 20.4592 2.8125 20.625V21.875C2.8125 22.0408 2.87835 22.1997 2.99556 22.3169C3.11277 22.4342 3.27174 22.5 3.4375 22.5C3.60326 22.5 3.76223 22.4342 3.87944 22.3169C3.99665 22.1997 4.0625 22.0408 4.0625 21.875V20.625ZM5.3125 21.875C5.3125 22.0408 5.37835 22.1997 5.49556 22.3169C5.61277 22.4342 5.77174 22.5 5.9375 22.5C6.10326 22.5 6.26223 22.4342 6.37944 22.3169C6.49665 22.1997 6.5625 22.0408 6.5625 21.875V20.625C6.5625 20.4592 6.49665 20.3003 6.37944 20.1831C6.26223 20.0658 6.10326 20 5.9375 20C5.77174 20 5.61277 20.0658 5.49556 20.1831C5.37835 20.3003 5.3125 20.4592 5.3125 20.625V21.875ZM7.8125 21.875C7.8125 22.0408 7.87835 22.1997 7.99556 22.3169C8.11277 22.4342 8.27174 22.5 8.4375 22.5C8.60326 22.5 8.76223 22.4342 8.87944 22.3169C8.99665 22.1997 9.0625 22.0408 9.0625 21.875V20.625C9.0625 20.4592 8.99665 20.3003 8.87944 20.1831C8.76223 20.0658 8.60326 20 8.4375 20C8.27174 20 8.11277 20.0658 7.99556 20.1831C7.87835 20.3003 7.8125 20.4592 7.8125 20.625V21.875ZM4.0625 24.375C4.0625 24.2092 3.99665 24.0503 3.87944 23.9331C3.76223 23.8158 3.60326 23.75 3.4375 23.75C3.27174 23.75 3.11277 23.8158 2.99556 23.9331C2.87835 24.0503 2.8125 24.2092 2.8125 24.375V25.625C2.8125 25.7908 2.87835 25.9497 2.99556 26.0669C3.11277 26.1842 3.27174 26.25 3.4375 26.25C3.60326 26.25 3.76223 26.1842 3.87944 26.0669C3.99665 25.9497 4.0625 25.7908 4.0625 25.625V24.375ZM5.3125 25.625C5.3125 25.7908 5.37835 25.9497 5.49556 26.0669C5.61277 26.1842 5.77174 26.25 5.9375 26.25C6.10326 26.25 6.26223 26.1842 6.37944 26.0669C6.49665 25.9497 6.5625 25.7908 6.5625 25.625V24.375C6.5625 24.2092 6.49665 24.0503 6.37944 23.9331C6.26223 23.8158 6.10326 23.75 5.9375 23.75C5.77174 23.75 5.61277 23.8158 5.49556 23.9331C5.37835 24.0503 5.3125 24.2092 5.3125 24.375V25.625ZM7.8125 25.625C7.8125 25.7908 7.87835 25.9497 7.99556 26.0669C8.11277 26.1842 8.27174 26.25 8.4375 26.25C8.60326 26.25 8.76223 26.1842 8.87944 26.0669C8.99665 25.9497 9.0625 25.7908 9.0625 25.625V24.375C9.0625 24.2092 8.99665 24.0503 8.87944 23.9331C8.76223 23.8158 8.60326 23.75 8.4375 23.75C8.27174 23.75 8.11277 23.8158 7.99556 23.9331C7.87835 24.0503 7.8125 24.2092 7.8125 24.375V25.625ZM4.0625 28.125C4.0625 27.9592 3.99665 27.8003 3.87944 27.6831C3.76223 27.5658 3.60326 27.5 3.4375 27.5C3.27174 27.5 3.11277 27.5658 2.99556 27.6831C2.87835 27.8003 2.8125 27.9592 2.8125 28.125V29.375C2.8125 29.5408 2.87835 29.6997 2.99556 29.8169C3.11277 29.9342 3.27174 30 3.4375 30C3.60326 30 3.76223 29.9342 3.87944 29.8169C3.99665 29.6997 4.0625 29.5408 4.0625 29.375V28.125ZM4.0625 31.875C4.0625 31.7092 3.99665 31.5503 3.87944 31.4331C3.76223 31.3158 3.60326 31.25 3.4375 31.25C3.27174 31.25 3.11277 31.3158 2.99556 31.4331C2.87835 31.5503 2.8125 31.7092 2.8125 31.875V33.125C2.8125 33.2908 2.87835 33.4497 2.99556 33.5669C3.11277 33.6842 3.27174 33.75 3.4375 33.75C3.60326 33.75 3.76223 33.6842 3.87944 33.5669C3.99665 33.4497 4.0625 33.2908 4.0625 33.125V31.875ZM3.4375 35C3.27174 35 3.11278 35.0659 2.99557 35.1831C2.87836 35.3003 2.81251 35.4592 2.8125 35.625V36.875C2.8125 37.0408 2.87835 37.1997 2.99556 37.3169C3.11277 37.4342 3.27174 37.5 3.4375 37.5C3.60326 37.5 3.76223 37.4342 3.87944 37.3169C3.99665 37.1997 4.0625 37.0408 4.0625 36.875V35.625C4.06249 35.4592 3.99664 35.3003 3.87943 35.1831C3.76222 35.0659 3.60326 35 3.4375 35ZM31.5625 18.75C31.7283 18.75 31.8872 18.6841 32.0044 18.5669C32.1216 18.4497 32.1875 18.2908 32.1875 18.125V16.875C32.1875 16.7092 32.1217 16.5503 32.0044 16.4331C31.8872 16.3158 31.7283 16.25 31.5625 16.25C31.3967 16.25 31.2378 16.3158 31.1206 16.4331C31.0033 16.5503 30.9375 16.7092 30.9375 16.875V18.125C30.9375 18.2908 31.0034 18.4497 31.1206 18.5669C31.2378 18.6841 31.3967 18.75 31.5625 18.75ZM34.0625 18.75C34.2283 18.75 34.3872 18.6841 34.5044 18.5669C34.6216 18.4497 34.6875 18.2908 34.6875 18.125V16.875C34.6875 16.7092 34.6217 16.5503 34.5044 16.4331C34.3872 16.3158 34.2283 16.25 34.0625 16.25C33.8967 16.25 33.7378 16.3158 33.6206 16.4331C33.5033 16.5503 33.4375 16.7092 33.4375 16.875V18.125C33.4375 18.2908 33.5034 18.4497 33.6206 18.5669C33.7378 18.6841 33.8967 18.75 34.0625 18.75ZM36.5625 18.75C36.7283 18.75 36.8872 18.6841 37.0044 18.5669C37.1216 18.4497 37.1875 18.2908 37.1875 18.125V16.875C37.1875 16.7092 37.1217 16.5503 37.0044 16.4331C36.8872 16.3158 36.7283 16.25 36.5625 16.25C36.3967 16.25 36.2378 16.3158 36.1206 16.4331C36.0033 16.5503 35.9375 16.7092 35.9375 16.875V18.125C35.9375 18.2908 36.0034 18.4497 36.1206 18.5669C36.2378 18.6841 36.3967 18.75 36.5625 18.75ZM30.9375 21.875C30.9375 22.0408 31.0033 22.1997 31.1206 22.3169C31.2378 22.4342 31.3967 22.5 31.5625 22.5C31.7283 22.5 31.8872 22.4342 32.0044 22.3169C32.1217 22.1997 32.1875 22.0408 32.1875 21.875V20.625C32.1875 20.4592 32.1217 20.3003 32.0044 20.1831C31.8872 20.0658 31.7283 20 31.5625 20C31.3967 20 31.2378 20.0658 31.1206 20.1831C31.0033 20.3003 30.9375 20.4592 30.9375 20.625V21.875ZM33.4375 21.875C33.4375 22.0408 33.5033 22.1997 33.6206 22.3169C33.7378 22.4342 33.8967 22.5 34.0625 22.5C34.2283 22.5 34.3872 22.4342 34.5044 22.3169C34.6217 22.1997 34.6875 22.0408 34.6875 21.875V20.625C34.6875 20.4592 34.6217 20.3003 34.5044 20.1831C34.3872 20.0658 34.2283 20 34.0625 20C33.8967 20 33.7378 20.0658 33.6206 20.1831C33.5033 20.3003 33.4375 20.4592 33.4375 20.625V21.875ZM35.9375 21.875C35.9375 22.0408 36.0033 22.1997 36.1206 22.3169C36.2378 22.4342 36.3967 22.5 36.5625 22.5C36.7283 22.5 36.8872 22.4342 37.0044 22.3169C37.1217 22.1997 37.1875 22.0408 37.1875 21.875V20.625C37.1875 20.4592 37.1217 20.3003 37.0044 20.1831C36.8872 20.0658 36.7283 20 36.5625 20C36.3967 20 36.2378 20.0658 36.1206 20.1831C36.0033 20.3003 35.9375 20.4592 35.9375 20.625V21.875ZM30.9375 25.625C30.9375 25.7908 31.0033 25.9497 31.1206 26.0669C31.2378 26.1842 31.3967 26.25 31.5625 26.25C31.7283 26.25 31.8872 26.1842 32.0044 26.0669C32.1217 25.9497 32.1875 25.7908 32.1875 25.625V24.375C32.1875 24.2092 32.1217 24.0503 32.0044 23.9331C31.8872 23.8158 31.7283 23.75 31.5625 23.75C31.3967 23.75 31.2378 23.8158 31.1206 23.9331C31.0033 24.0503 30.9375 24.2092 30.9375 24.375V25.625ZM33.4375 25.625C33.4375 25.7908 33.5033 25.9497 33.6206 26.0669C33.7378 26.1842 33.8967 26.25 34.0625 26.25C34.2283 26.25 34.3872 26.1842 34.5044 26.0669C34.6217 25.9497 34.6875 25.7908 34.6875 25.625V24.375C34.6875 24.2092 34.6217 24.0503 34.5044 23.9331C34.3872 23.8158 34.2283 23.75 34.0625 23.75C33.8967 23.75 33.7378 23.8158 33.6206 23.9331C33.5033 24.0503 33.4375 24.2092 33.4375 24.375V25.625ZM35.9375 25.625C35.9375 25.7908 36.0033 25.9497 36.1206 26.0669C36.2378 26.1842 36.3967 26.25 36.5625 26.25C36.7283 26.25 36.8872 26.1842 37.0044 26.0669C37.1217 25.9497 37.1875 25.7908 37.1875 25.625V24.375C37.1875 24.2092 37.1217 24.0503 37.0044 23.9331C36.8872 23.8158 36.7283 23.75 36.5625 23.75C36.3967 23.75 36.2378 23.8158 36.1206 23.9331C36.0033 24.0503 35.9375 24.2092 35.9375 24.375V25.625ZM35.9375 29.375C35.9375 29.5408 36.0033 29.6997 36.1206 29.8169C36.2378 29.9342 36.3967 30 36.5625 30C36.7283 30 36.8872 29.9342 37.0044 29.8169C37.1217 29.6997 37.1875 29.5408 37.1875 29.375V28.125C37.1875 27.9592 37.1217 27.8003 37.0044 27.6831C36.8872 27.5658 36.7283 27.5 36.5625 27.5C36.3967 27.5 36.2378 27.5658 36.1206 27.6831C36.0033 27.8003 35.9375 27.9592 35.9375 28.125V29.375ZM35.9375 33.125C35.9375 33.2908 36.0033 33.4497 36.1206 33.5669C36.2378 33.6842 36.3967 33.75 36.5625 33.75C36.7283 33.75 36.8872 33.6842 37.0044 33.5669C37.1217 33.4497 37.1875 33.2908 37.1875 33.125V31.875C37.1875 31.7092 37.1217 31.5503 37.0044 31.4331C36.8872 31.3158 36.7283 31.25 36.5625 31.25C36.3967 31.25 36.2378 31.3158 36.1206 31.4331C36.0033 31.5503 35.9375 31.7092 35.9375 31.875V33.125ZM35.9375 36.875C35.9375 37.0408 36.0033 37.1997 36.1206 37.3169C36.2378 37.4342 36.3967 37.5 36.5625 37.5C36.7283 37.5 36.8872 37.4342 37.0044 37.3169C37.1217 37.1997 37.1875 37.0408 37.1875 36.875V35.625C37.1875 35.4592 37.1217 35.3003 37.0044 35.1831C36.8872 35.0658 36.7283 35 36.5625 35C36.3967 35 36.2378 35.0658 36.1206 35.1831C36.0033 35.3003 35.9375 35.4592 35.9375 35.625V36.875ZM13.125 8.125C13.125 8.29076 13.1908 8.44973 13.3081 8.56694C13.4253 8.68415 13.5842 8.75 13.75 8.75C13.9158 8.75 14.0747 8.68415 14.1919 8.56694C14.3092 8.44973 14.375 8.29076 14.375 8.125V6.875C14.375 6.70924 14.3092 6.55027 14.1919 6.43306C14.0747 6.31585 13.9158 6.25 13.75 6.25C13.5842 6.25 13.4253 6.31585 13.3081 6.43306C13.1908 6.55027 13.125 6.70924 13.125 6.875V8.125ZM15.625 8.125C15.625 8.29076 15.6908 8.44973 15.8081 8.56694C15.9253 8.68415 16.0842 8.75 16.25 8.75C16.4158 8.75 16.5747 8.68415 16.6919 8.56694C16.8092 8.44973 16.875 8.29076 16.875 8.125V6.875C16.875 6.70924 16.8092 6.55027 16.6919 6.43306C16.5747 6.31585 16.4158 6.25 16.25 6.25C16.0842 6.25 15.9253 6.31585 15.8081 6.43306C15.6908 6.55027 15.625 6.70924 15.625 6.875V8.125ZM18.125 8.125C18.125 8.29076 18.1908 8.44973 18.3081 8.56694C18.4253 8.68415 18.5842 8.75 18.75 8.75C18.9158 8.75 19.0747 8.68415 19.1919 8.56694C19.3092 8.44973 19.375 8.29076 19.375 8.125V6.875C19.375 6.70924 19.3092 6.55027 19.1919 6.43306C19.0747 6.31585 18.9158 6.25 18.75 6.25C18.5842 6.25 18.4253 6.31585 18.3081 6.43306C18.1908 6.55027 18.125 6.70924 18.125 6.875V8.125ZM20.625 8.125C20.625 8.29076 20.6908 8.44973 20.8081 8.56694C20.9253 8.68415 21.0842 8.75 21.25 8.75C21.4158 8.75 21.5747 8.68415 21.6919 8.56694C21.8092 8.44973 21.875 8.29076 21.875 8.125V6.875C21.875 6.70924 21.8092 6.55027 21.6919 6.43306C21.5747 6.31585 21.4158 6.25 21.25 6.25C21.0842 6.25 20.9253 6.31585 20.8081 6.43306C20.6908 6.55027 20.625 6.70924 20.625 6.875V8.125ZM23.125 8.125C23.125 8.29076 23.1908 8.44973 23.3081 8.56694C23.4253 8.68415 23.5842 8.75 23.75 8.75C23.9158 8.75 24.0747 8.68415 24.1919 8.56694C24.3092 8.44973 24.375 8.29076 24.375 8.125V6.875C24.375 6.70924 24.3092 6.55027 24.1919 6.43306C24.0747 6.31585 23.9158 6.25 23.75 6.25C23.5842 6.25 23.4253 6.31585 23.3081 6.43306C23.1908 6.55027 23.125 6.70924 23.125 6.875V8.125ZM25.625 8.125C25.625 8.29076 25.6908 8.44973 25.8081 8.56694C25.9253 8.68415 26.0842 8.75 26.25 8.75C26.4158 8.75 26.5747 8.68415 26.6919 8.56694C26.8092 8.44973 26.875 8.29076 26.875 8.125V6.875C26.875 6.70924 26.8092 6.55027 26.6919 6.43306C26.5747 6.31585 26.4158 6.25 26.25 6.25C26.0842 6.25 25.9253 6.31585 25.8081 6.43306C25.6908 6.55027 25.625 6.70924 25.625 6.875V8.125Z" fill="#898088"/>
<path d="M38.125 13.75H34.375V12.5C34.3745 12.0029 34.1767 11.5263 33.8252 11.1748C33.4737 10.8233 32.9971 10.6255 32.5 10.625H29.375V1.875C29.3745 1.37789 29.1767 0.901287 28.8252 0.549774C28.4737 0.198261 27.9971 0.000542622 27.5 0L12.5 0C12.0029 0.000542622 11.5263 0.198261 11.1748 0.549774C10.8233 0.901287 10.6255 1.37789 10.625 1.875V10.625H7.5C7.00289 10.6255 6.52629 10.8233 6.17477 11.1748C5.82326 11.5263 5.62554 12.0029 5.625 12.5V13.75H1.875C1.37789 13.7505 0.901287 13.9483 0.549774 14.2998C0.198261 14.6513 0.000542622 15.1279 0 15.625L0 38.125C0.000542622 38.6221 0.198261 39.0987 0.549774 39.4502C0.901287 39.8017 1.37789 39.9995 1.875 40H5.84127C5.58199 39.6273 5.41296 39.1993 5.34752 38.75H1.875C1.70931 38.7498 1.55046 38.6839 1.4333 38.5667C1.31613 38.4495 1.25022 38.2907 1.25 38.125V15.625C1.25022 15.4593 1.31613 15.3005 1.4333 15.1833C1.55046 15.0661 1.70931 15.0002 1.875 15H9.375V13.75H6.875V12.5C6.87522 12.3343 6.94113 12.1755 7.0583 12.0583C7.17546 11.9411 7.33431 11.8752 7.5 11.875H10.625V26.6858L11.875 26.0406V1.875C11.8752 1.70931 11.9411 1.55046 12.0583 1.4333C12.1755 1.31613 12.3343 1.25022 12.5 1.25H27.5C27.6657 1.25022 27.8245 1.31613 27.9417 1.4333C28.0589 1.55046 28.1248 1.70931 28.125 1.875V25.9552L29.375 26.6254V11.875H32.5C32.6657 11.8752 32.8245 11.9411 32.9417 12.0583C33.0589 12.1755 33.1248 12.3343 33.125 12.5V13.75H30.625V15H38.125C38.2907 15.0002 38.4495 15.0661 38.5667 15.1833C38.6839 15.3005 38.7498 15.4593 38.75 15.625V38.125C38.7498 38.2907 38.6839 38.4495 38.5667 38.5667C38.4495 38.6839 38.2907 38.7498 38.125 38.75H34.6525C34.587 39.1993 34.418 39.6273 34.1587 40H38.125C38.6221 39.9995 39.0987 39.8017 39.4502 39.4502C39.8017 39.0987 39.9995 38.6221 40 38.125V15.625C39.9995 15.1279 39.8017 14.6513 39.4502 14.2998C39.0987 13.9483 38.6221 13.7505 38.125 13.75Z" fill="#898088"/>
<path d="M31.5625 27.5C31.4366 27.4999 31.3137 27.538 31.21 27.6093L32.1875 28.1334V28.125C32.1875 27.9593 32.1216 27.8003 32.0044 27.6831C31.8872 27.5659 31.7283 27.5 31.5625 27.5ZM5.3125 29.375C5.3126 29.5173 5.36131 29.6554 5.45055 29.7663C5.5398 29.8771 5.66423 29.9542 5.80326 29.9847C6.00742 29.6275 6.26327 29.3024 6.5625 29.0199V28.125C6.5625 27.9592 6.49665 27.8003 6.37944 27.6831C6.26223 27.5659 6.10326 27.5 5.9375 27.5C5.77174 27.5 5.61277 27.5659 5.49556 27.6831C5.37835 27.8003 5.3125 27.9592 5.3125 28.125V29.375ZM7.8125 28.1376L8.80768 27.6239C8.71498 27.5546 8.6048 27.5125 8.48951 27.5024C8.37422 27.4923 8.25839 27.5145 8.15503 27.5665C8.05166 27.6186 7.96485 27.6984 7.90435 27.7971C7.84384 27.8957 7.81203 28.0093 7.8125 28.125V28.1376ZM34.6875 29.375V28.125C34.6875 27.9592 34.6217 27.8003 34.5044 27.6831C34.3872 27.5659 34.2283 27.5 34.0625 27.5C33.8967 27.5 33.7378 27.5659 33.6206 27.6831C33.5033 27.8003 33.4375 27.9592 33.4375 28.125V28.9962C33.7453 29.2818 34.0066 29.6138 34.212 29.98C34.3475 29.9468 34.468 29.8692 34.5541 29.7595C34.6403 29.6499 34.6873 29.5145 34.6875 29.375Z" fill="#898088"/>
<path d="M31.8491 29.3713C31.8393 29.3655 25.1435 25.7761 25.1243 25.7681C25.0409 25.7359 24.9682 25.6812 24.9142 25.6101C24.8601 25.5389 24.8269 25.4542 24.8182 25.3653V22.6717C25.3203 21.7935 25.7124 20.8567 25.9855 19.8825C26.1591 19.2655 26.2481 18.6277 26.25 17.9866C26.2485 17.4449 26.1726 16.906 26.0244 16.385C26.2154 16.22 26.3835 16.0301 26.5241 15.8205C26.838 15.2871 26.9428 14.6562 26.8182 14.0499C26.6936 13.4436 26.3485 12.9052 25.8496 12.5388C24.8679 11.7553 23.7855 11.107 22.6314 10.6114C21.7627 10.2218 20.8237 10.0138 19.8718 10C19.0249 10.0047 18.1904 10.2026 17.4316 10.5788C16.6729 10.9549 16.0101 11.4993 15.4937 12.1704C13.8792 12.7077 13.6764 15.4442 13.7693 17.5324C13.7578 17.6825 13.75 17.8336 13.75 17.9866C13.7929 19.9107 14.3604 21.7865 15.3913 23.4117V25.3653C15.3923 25.4504 15.3684 25.5339 15.3224 25.6054C15.2765 25.677 15.2105 25.7336 15.1328 25.7681C15.1166 25.7748 15.1007 25.7822 15.0855 25.7901C15.0855 25.7901 8.16288 29.364 8.15007 29.3719C7.09661 30.0168 6.56254 30.8557 6.56254 31.8652V38.3188C6.55933 38.7608 6.73158 39.186 7.04149 39.5012C7.3514 39.8164 7.77367 39.9958 8.21567 40H31.7844C32.2264 39.9958 32.6487 39.8164 32.9586 39.5012C33.2685 39.186 33.4408 38.7608 33.4375 38.3188V31.8652C33.4375 30.7959 32.9624 30.05 31.8491 29.3713ZM15.8884 13.3565L16.2857 13.2243L16.5232 12.8794C16.9254 12.3762 17.4346 11.969 18.0138 11.6871C18.593 11.4053 19.2277 11.256 19.8718 11.25C20.6545 11.2654 21.426 11.4391 22.1398 11.7607C23.1923 12.2119 24.179 12.8031 25.0732 13.5184C25.3255 13.692 25.506 13.9515 25.581 14.2485C25.656 14.5455 25.6204 14.8596 25.4807 15.1322C25.0584 15.7725 23.9206 16.2516 22.4371 16.414C22.191 16.4413 21.9436 16.4552 21.696 16.4557C21.2986 16.458 20.9023 16.4153 20.5145 16.3284C19.9085 16.1085 19.3321 15.8144 18.7984 15.4527C18.6212 15.3236 18.4174 15.2354 18.202 15.1945C17.9865 15.1536 17.7646 15.161 17.5524 15.2163C17.3401 15.2715 17.1428 15.3732 16.9746 15.5139C16.8064 15.6547 16.6715 15.831 16.5797 16.0302C16.4355 15.9928 16.2871 15.9739 16.1381 15.9738H16.1379C15.7276 15.9751 15.3295 16.1141 15.0075 16.3686C15.053 14.8035 15.3392 13.5393 15.8884 13.3565ZM15.1232 19.3116C15.1088 19.1637 15.0918 18.9823 15.0907 18.9588C15.0699 18.7425 15.0945 18.5242 15.163 18.3179C15.2992 17.9366 15.6517 17.2238 16.1379 17.2238C16.2101 17.2244 16.2816 17.2393 16.3479 17.2679C16.3492 17.2684 17.1162 17.5892 17.1162 17.5892C17.1846 17.6099 17.2583 17.6042 17.3228 17.5733C17.3872 17.5424 17.4378 17.4885 17.4646 17.4222L17.7047 16.5815C17.7185 16.534 17.7475 16.4924 17.7872 16.4629C17.8269 16.4335 17.8752 16.4179 17.9246 16.4185C17.9746 16.4185 18.0233 16.4345 18.0637 16.464C18.7279 16.9233 19.4537 17.2866 20.2194 17.5432C20.7038 17.6536 21.1992 17.7082 21.696 17.7057C21.989 17.7053 22.2818 17.6889 22.5731 17.6566C23.3749 17.577 24.1608 17.3803 24.9056 17.0727C24.9672 17.3735 24.9989 17.6796 25 17.9866C24.9985 18.5139 24.925 19.0385 24.7817 19.5459C24.2269 21.5297 23.1629 23.2691 21.8625 24.318C21.3118 24.7632 20.624 25.0042 19.9159 25C19.4017 24.9915 18.8948 24.8763 18.4275 24.6615C17.9602 24.4468 17.5426 24.1373 17.2013 23.7527C16.1258 22.4836 15.4084 20.9505 15.1232 19.3116ZM19.8832 28.5999L16.4441 26.1559C16.573 25.9123 16.6406 25.6409 16.6413 25.3653V24.9603C17.5359 25.7801 18.7025 26.2396 19.9159 26.25C20.9096 26.2547 21.8744 25.9159 22.6471 25.291C22.9769 25.02 23.2849 24.7233 23.5682 24.4039V25.3653C23.5694 25.5098 23.5906 25.6535 23.6312 25.7922L19.8832 28.5999ZM21.5619 34.6066C21.5632 34.6674 21.5442 34.7269 21.5079 34.7757L21.4328 34.8465C21.4328 34.8465 20.6717 35.6906 20.145 36.2814L18.541 34.805L18.5077 34.7763C18.4598 34.7159 18.4361 34.6397 18.4412 34.5627L19.3067 29.724L19.509 29.8679C19.6248 29.958 19.7686 30.0046 19.9152 29.9997C20.0619 29.9947 20.2022 29.9384 20.3116 29.8407L20.5004 29.6993L21.5619 34.6066ZM32.1875 38.3188C32.191 38.4293 32.1505 38.5368 32.075 38.6176C31.9994 38.6984 31.895 38.746 31.7844 38.75H8.21567C8.10512 38.746 8.00066 38.6984 7.92512 38.6176C7.84958 38.5368 7.8091 38.4293 7.81254 38.3188V31.8652C7.81254 31.4856 7.92363 30.9824 8.78392 30.4495L15.4836 26.9914C15.5116 27.0212 15.5424 27.0481 15.5756 27.0718L18.1801 28.9232L17.2141 34.3256C17.168 34.5835 17.1892 34.849 17.2758 35.0963C17.3623 35.3436 17.5113 35.5644 17.7082 35.7373L19.5194 37.4045C19.7109 37.5711 19.9596 37.6571 20.2131 37.6445C20.4667 37.6319 20.7055 37.5216 20.8796 37.3367C21.3315 36.8265 22.1689 35.8969 22.3328 35.7147C22.5218 35.542 22.6624 35.3229 22.7408 35.0792C22.8191 34.8354 22.8325 34.5755 22.7796 34.325L21.6011 28.8748L24.3859 26.7887C24.4591 26.8345 24.5355 26.8748 24.6146 26.9095L31.2128 30.4474C32.0276 30.9476 32.1875 31.3467 32.1875 31.8652V38.3188Z" fill="#898088"/>
</g>
<defs>
<clipPath id="clip0_337_7978">
<rect width="40" height="40" fill="white"/>
</clipPath>
</defs>
</svg>
