<svg width="15" height="10" viewBox="0 0 15 10" fill="none" xmlns="http://www.w3.org/2000/svg">
<path d="M13.9882 1.56471C13.8235 0.952941 13.3412 0.470588 12.7294 0.305882C11.6118 0 7.14118 0 7.14118 0C7.14118 0 2.67059 0 1.55294 0.294118C0.952941 0.458824 0.458823 0.952941 0.294118 1.56471C0 2.68235 0 5 0 5C0 5 0 7.32941 0.294118 8.43529C0.458823 9.04706 0.941176 9.52941 1.55294 9.69412C2.68235 10 7.14118 10 7.14118 10C7.14118 10 11.6118 10 12.7294 9.70588C13.3412 9.54118 13.8235 9.05882 13.9882 8.44706C14.2824 7.32941 14.2824 5.01176 14.2824 5.01176C14.2824 5.01176 14.2941 2.68235 13.9882 1.56471Z" fill="#342633"/>
<path d="M5.71753 7.14124L9.43518 5.00006L5.71753 2.85889V7.14124Z" fill="#898088"/>
</svg>
